<svg xmlns="http://www.w3.org/2000/svg" width="37" height="50" viewBox="0 0 463 463" fill="#444"><path d="M403 434.9l-7.4-36.9c-3.5-17.5-16.4-31.4-33.5-36.4l-76.9-22c-3.6-1-6.2-4.4-6.2-8.2v-22.2c46.4-19.9 79.4-68 80-124.2 2.3-5.6 10.4-27 14-54.3 5.3-40.7-2.1-75.6-21.5-101.3.8-4.1 2.6-11.9 6.4-17.9 1.5-2.3 1.6-5.2.2-7.6-1.3-2.4-3.8-3.9-6.6-3.9-36.1 0-68.9 7.1-91.6 13.7l.9-.9c2.1-2.1 2.8-5.4 1.6-8.2-1.2-2.8-3.9-4.6-6.9-4.6-40 0-81.7 1.9-114.4 24C111.7 25 80 44.2 80 71.5c0 62.8 11.4 92.2 24 114.1.8 56 33.7 103.9 80 123.7v22.2c0 3.8-2.5 7.1-6.2 8.2l-76.9 22c-17.2 4.9-30 18.8-33.5 36.4L60 434.9c-1.4 6.9.4 14 4.9 19.5S76 463 83.1 463h297c7.1 0 13.7-3.1 18.2-8.6 4.3-5.5 6.1-12.6 4.7-19.5zM143.4 39h.1c1.6 0 3.1-.5 4.3-1.4C172.5 20 204.7 16 237.2 15.2l-11 11c-2.5 2.5-2.9 6.5-.9 9.5s5.9 4.1 9.2 2.6c.5-.2 47.7-20.5 105.1-23.1-2.8 8-3.6 15-3.6 15.4-.2 2 .4 4 1.6 5.5 29.4 36.3 23.2 87.1 15.5 117.8-1-2.2-2.2-4.4-3.4-6.8-1.4-2.6-2.9-5.6-4.6-9.1-1.1-2.2-3.1-3.8-5.5-4.2l-34.8-5.8c-2.1-.3-4.2.2-5.9 1.5-9.1 7.2-20.3 11-27.8 12.8v-17.9c0-3-1.8-5.7-4.5-6.9-2.7-1.2-5.9-.7-8.1 1.3-15.9 14.7-33.4 23.4-45.5 28.2.5-1.3 1.1-2.6 1.6-3.8 2.4-5.6 4.2-10.1 5.5-13.3 3.1-7.5 3.7-9 2.3-12.2-.9-1.9-2.5-3.4-4.5-4.1-16-5.4-30.4-2.2-43.2.5-12.9 2.8-23.2 5-32.7-1.2-3.3-2.2-7.7-1.4-10.1 1.8l-2.1 2.7c-10.5 13.9-18.6 24.7-22.8 39.9-6.2-16.6-12-42.7-12-85.8C95 53.2 121 39 143.4 39zM119 183.5c0-25.5 7-35.8 21.1-54.4 12.7 5.4 25.4 2.6 37.8-.1 9.4-2 18.3-4 27.5-2.8-3.3 8-8.7 20.7-12.8 30.3-1.1 2.6-.7 5.6 1.1 7.7s4.7 3.1 7.4 2.5c1.3-.3 27.8-6.4 54.9-26.4v11.1c0 2.1.9 4.2 2.5 5.6 1.6 1.4 3.7 2.1 5.8 1.9 1-.1 23.1-2.6 41.1-15.5l27.8 4.7c1.1 2.2 2.2 4.2 3.1 6.1 5.2 10 7.6 14.5 7.6 29.2v.1c0 66.4-50.5 120.5-112.5 120.5S119 249.9 119 183.5zM182 354c10-2.9 17-12.2 17-22.6v-16.9c10.4 2.9 21.3 4.5 32.5 4.5s22.1-1.6 32.5-4.5v16.9c0 10.4 7 19.7 17 22.6l10.2 2.9c-8 25.9-32.2 44.1-59.7 44.1s-51.8-18.2-59.7-44.1L182 354zm204.6 90.9c-1.6 2-4 3.1-6.6 3.1h-37v-16.5c0-4.1-3.4-7.5-7.5-7.5s-7.5 3.4-7.5 7.5V448H135v-16.5c0-4.1-3.4-7.5-7.5-7.5s-7.5 3.4-7.5 7.5V448H83c-2.6 0-5-1.1-6.6-3.1-1.6-2-2.3-4.5-1.8-7.1l7.4-36.9c2.4-12 11.2-21.5 22.9-24.9l52.3-15c9.8 32.2 39.9 54.9 74.2 54.9s64.4-22.7 74.2-54.9l52.3 15c11.8 3.4 20.5 12.9 22.9 24.9l7.4 36.9c.6 2.5 0 5.1-1.6 7.1z"/><path d="M175.5 192c-4.1 0-7.5 3.4-7.5 7.5v8c0 4.1 3.4 7.5 7.5 7.5s7.5-3.4 7.5-7.5v-8c0-4.1-3.4-7.5-7.5-7.5zM287.5 215c4.1 0 7.5-3.4 7.5-7.5v-8c0-4.1-3.4-7.5-7.5-7.5s-7.5 3.4-7.5 7.5v8c0 4.1 3.4 7.5 7.5 7.5zM267.7 261.5c3.4-2.3 4.3-7 2-10.4-2.3-3.4-7-4.3-10.4-2-6.4 4.3-16.8 6.9-27.8 6.9s-21.4-2.6-27.8-6.9c-3.4-2.3-8.1-1.4-10.4 2-2.3 3.4-1.4 8.1 2 10.4 8.9 6 22.1 9.5 36.2 9.5s27.3-3.5 36.2-9.5z"/></svg>