<?xml version="1.0" standalone="no"?>
<!DOCTYPE svg PUBLIC "-//W3C//DTD SVG 20010904//EN"
 "http://www.w3.org/TR/2001/REC-SVG-20010904/DTD/svg10.dtd">
<svg version="1.0" xmlns="http://www.w3.org/2000/svg"
 width="300.000000pt" height="99.000000pt" viewBox="0 0 300.000000 99.000000"
 preserveAspectRatio="xMidYMid meet">
<metadata>
Created by potrace 1.10, written by Peter Selinger 2001-2011
</metadata>
<g transform="translate(0.000000,99.000000) scale(0.050000,-0.050000)"
fill="#ec1e79" stroke="none">
<path d="M680 1953 c-782 -142 -917 -1241 -194 -1580 209 -97 200 -100 429
133 l204 207 206 -206 205 -207 196 0 195 0 -125 117 c-69 64 -156 143 -192
175 l-66 58 66 130 c103 203 99 505 -9 724 -173 350 -520 520 -915 449z m400
-275 c271 -122 411 -425 330 -714 -43 -151 -38 -151 -178 -4 l-114 119 -246
-254 -247 -254 -85 57 c-607 401 -120 1349 540 1050z"/>
<path d="M4560 1823 c0 -11 -18 -26 -40 -33 -75 -24 -35 -135 42 -115 41 11
56 132 18 155 -11 7 -20 3 -20 -7z"/>
<path d="M4675 1828 c-8 -8 -15 -44 -15 -79 0 -76 60 -105 107 -52 34 37 11
103 -36 103 -15 0 -31 10 -35 21 -4 12 -13 15 -21 7z"/>
<path d="M4973 1825 c-7 -12 -7 -51 1 -88 13 -65 14 -65 28 -17 13 48 14 48
16 5 2 -56 42 -60 42 -5 0 55 35 51 46 -5 5 -25 10 -4 11 45 1 50 -4 80 -12
69 -28 -40 -83 -49 -102 -16 -11 20 -22 24 -30 12z"/>
<path d="M5488 1795 c-37 -46 -43 -48 -65 -18 -21 28 -23 26 -12 -17 7 -27 12
-66 12 -85 -1 -57 25 -40 60 40 31 70 33 71 35 22 2 -61 50 -88 87 -48 21 23
30 23 57 -1 43 -39 98 -15 98 42 0 58 -56 80 -100 40 -32 -29 -36 -29 -47 -1
-6 17 -25 31 -41 31 -16 0 -32 10 -36 23 -5 13 -25 1 -48 -28z"/>
<path d="M5901 1768 c-1 -75 4 -83 49 -83 43 0 47 5 25 31 -20 24 -20 32 0 39
14 5 25 17 25 28 0 11 -11 17 -25 12 -14 -5 -36 6 -49 23 -21 27 -25 18 -25
-50z"/>
<path d="M3740 1721 c0 -86 27 -92 105 -25 19 17 35 21 35 9 0 -37 58 -44 91
-11 28 28 35 28 51 4 15 -24 21 -24 38 2 13 20 19 22 20 5 0 -40 32 -29 56 20
15 32 22 36 23 12 3 -74 80 -86 106 -17 10 24 12 23 13 -5 3 -55 36 -41 48 20
13 67 4 78 -34 47 -18 -15 -33 -17 -41 -4 -9 15 -121 16 -121 1 0 -17 -103 -9
-115 8 -9 14 -15 8 -15 -16 0 -38 0 -38 -29 0 -25 34 -34 36 -72 12 -31 -19
-50 -20 -65 -5 -51 51 -94 25 -94 -57z"/>
<path d="M4360 1770 c-35 -43 -9 -94 45 -86 51 7 72 73 32 98 -38 24 -49 22
-77 -12z"/>
<path d="M4812 1730 c7 -44 16 -83 19 -87 12 -14 71 121 63 143 -6 15 -15 10
-24 -12 -14 -34 -16 -34 -43 0 -25 32 -26 27 -15 -44z"/>
<path d="M5165 1787 c-26 -11 -36 -147 -10 -147 8 1 38 18 65 40 67 52 23 138
-55 107z"/>
<path d="M5282 1715 c0 -47 6 -74 11 -60 6 14 18 21 27 15 35 -21 81 51 59 91
-41 77 -99 49 -97 -46z"/>
<path d="M5805 1787 c-14 -6 -25 -26 -25 -46 0 -44 50 -89 79 -72 32 20 25 47
-12 44 -18 -2 -37 10 -43 25 -7 20 3 25 34 17 28 -8 42 -4 37 10 -9 27 -36 35
-70 22z"/>
<path d="M4267 1553 c-188 -62 -302 -228 -281 -409 18 -166 109 -240 376 -305
315 -77 353 -101 327 -207 -27 -106 -276 -150 -403 -73 -62 38 -78 69 -90 179
-9 69 -242 73 -252 5 -65 -434 753 -641 956 -243 138 271 5 464 -388 561 -281
70 -272 65 -272 148 0 83 36 113 148 126 162 18 272 -52 272 -174 0 -39 208
-72 247 -39 33 27 -28 238 -89 307 -107 122 -374 182 -551 124z"/>
<path d="M2960 900 l0 -620 470 0 470 0 0 120 0 119 -342 6 -342 5 -3 135 -3
135 315 0 315 0 0 121 0 121 -312 -3 -313 -3 0 117 0 117 333 0 332 0 0 125 0
125 -460 0 -460 0 0 -620z"/>
<path d="M4980 1400 l0 -120 190 0 190 0 0 -500 0 -500 130 0 130 0 0 500 0
500 190 0 190 0 0 120 0 120 -510 0 -510 0 0 -120z"/>
<path d="M1864 1034 c9 -666 82 -784 484 -784 410 0 491 138 492 835 l0 415
-130 0 -130 0 0 -431 c0 -541 -20 -589 -242 -589 -200 0 -218 50 -218 589 l0
431 -131 0 -132 0 7 -466z"/>
<path d="M400 182 c0 -10 -23 -23 -51 -31 -82 -20 -62 -119 26 -127 65 -7 65
-6 65 85 0 50 -9 91 -20 91 -11 0 -20 -8 -20 -18z m0 -102 c0 -45 -50 -54 -66
-12 -13 33 2 52 39 52 15 0 27 -18 27 -40z"/>
<path d="M1095 175 c-13 -35 6 -155 25 -155 19 0 38 120 25 155 -5 14 -16 25
-25 25 -9 0 -20 -11 -25 -25z"/>
<path d="M1205 121 c-3 -43 3 -83 13 -90 10 -6 21 30 25 79 4 52 -1 90 -13 90
-11 0 -22 -35 -25 -79z"/>
<path d="M2460 110 c0 -50 9 -90 21 -90 12 0 18 37 15 90 -8 117 -36 117 -36
0z"/>
<path d="M2555 175 c-13 -35 6 -155 25 -155 19 0 38 120 25 155 -5 14 -16 25
-25 25 -9 0 -20 -11 -25 -25z"/>
<path d="M3538 181 c-9 -74 -6 -146 7 -154 8 -5 15 12 15 38 0 26 8 56 18 66
12 12 8 29 -10 45 -17 15 -29 17 -30 5z"/>
<path d="M4255 175 c-13 -35 6 -155 25 -155 19 0 38 120 25 155 -5 14 -16 25
-25 25 -9 0 -20 -11 -25 -25z"/>
<path d="M4694 173 c-6 -15 -3 -57 6 -95 14 -61 16 -62 18 -15 1 30 13 57 27
62 18 6 16 17 -8 41 -26 26 -35 27 -43 7z"/>
<path d="M5000 110 c0 -50 9 -90 20 -90 11 0 20 40 20 90 0 50 -9 90 -20 90
-11 0 -20 -40 -20 -90z"/>
<path d="M5935 175 c-13 -35 6 -155 25 -155 19 0 38 120 25 155 -5 14 -16 25
-25 25 -9 0 -20 -11 -25 -25z"/>
<path d="M123 142 c-14 -9 -23 -38 -20 -64 8 -54 86 -78 124 -38 17 17 9 19
-32 9 -35 -8 -55 -5 -55 9 0 12 23 22 50 22 55 0 63 19 26 56 -28 28 -56 30
-93 6z"/>
<path d="M504 95 c10 -108 117 -109 114 -1 -3 71 -4 72 -15 18 -18 -82 -63
-92 -63 -14 0 34 -10 62 -21 62 -12 0 -19 -28 -15 -65z"/>
<path d="M699 129 c-19 -23 -21 -42 -6 -66 24 -37 127 -57 127 -25 0 12 -20
19 -44 17 -30 -3 -47 8 -52 33 -7 31 1 36 45 27 33 -6 50 -2 45 13 -12 36 -85
37 -115 1z"/>
<path d="M900 131 c-41 -51 -16 -100 55 -107 62 -6 65 -3 65 60 0 75 -73 103
-120 47z m90 -51 c0 -43 -58 -37 -67 7 -5 27 3 35 30 30 20 -4 37 -21 37 -37z"/>
<path d="M1322 132 c-43 -51 -19 -102 48 -102 53 0 60 7 60 60 0 69 -65 94
-108 42z m86 -28 c15 -26 -21 -70 -46 -55 -32 19 -27 71 7 71 16 0 33 -7 39
-16z"/>
<path d="M1500 91 c0 -39 9 -71 20 -71 11 0 20 23 20 52 0 64 43 55 63 -13 12
-40 14 -36 11 21 -6 108 -114 119 -114 11z"/>
<path d="M1919 129 c-36 -43 -1 -99 63 -99 40 0 48 10 48 60 0 70 -66 94 -111
39z"/>
<path d="M2100 141 c0 -10 9 -24 21 -32 14 -8 13 -22 -3 -41 -13 -16 -17 -35
-10 -43 8 -8 22 -2 31 13 11 18 20 20 30 4 7 -12 23 -22 35 -22 13 0 11 12 -5
32 -21 25 -21 39 -3 70 27 42 6 52 -32 14 -19 -19 -24 -19 -24 0 0 13 -9 24
-20 24 -11 0 -20 -8 -20 -19z"/>
<path d="M2282 132 c-57 -68 42 -156 105 -93 16 16 9 21 -27 17 -34 -4 -51 5
-56 32 -7 32 0 35 46 24 39 -10 52 -7 45 12 -12 38 -84 43 -113 8z"/>
<path d="M2688 131 c-19 -49 1 -100 41 -108 53 -10 96 51 70 100 -24 44 -96
49 -111 8z"/>
<path d="M2882 84 c2 -62 4 -66 16 -25 19 70 62 76 64 8 2 -55 2 -55 16 -8 19
68 62 77 62 13 0 -29 9 -52 20 -52 23 0 26 80 5 111 -8 12 -53 22 -100 24
l-85 3 2 -74z"/>
<path d="M3142 124 c-24 -46 8 -104 58 -104 50 0 83 60 57 106 -25 44 -90 44
-115 -2z"/>
<path d="M3342 82 c2 -61 4 -65 16 -23 19 68 62 77 62 13 0 -29 10 -52 21 -52
12 0 19 28 15 65 -10 104 -117 101 -114 -3z"/>
<path d="M3883 142 c-14 -9 -23 -38 -20 -64 8 -54 86 -78 124 -38 17 17 9 19
-32 9 -35 -8 -55 -5 -55 9 0 12 23 22 50 22 55 0 63 19 26 56 -28 28 -56 30
-93 6z"/>
<path d="M4060 91 c0 -39 9 -71 20 -71 11 0 20 23 20 50 0 28 9 50 20 50 11 0
20 -17 20 -39 0 -21 10 -45 21 -52 14 -9 20 10 15 54 -10 105 -116 113 -116 8z"/>
<path d="M4381 123 c-32 -60 -5 -106 57 -99 43 5 52 16 52 66 0 74 -74 97
-109 33z"/>
<path d="M4560 90 c0 -38 9 -70 20 -70 11 0 20 23 20 50 0 28 9 50 20 50 11 0
20 9 20 20 0 11 -18 20 -40 20 -32 0 -40 -13 -40 -70z"/>
<path d="M4820 131 c-40 -49 -5 -111 61 -111 53 0 59 6 59 66 0 73 -73 100
-120 45z m90 -51 c0 -43 -58 -37 -67 7 -5 27 3 35 30 30 20 -4 37 -21 37 -37z"/>
<path d="M5100 91 c0 -39 9 -71 20 -71 11 0 20 23 20 50 0 69 55 65 66 -5 7
-41 9 -37 7 15 -5 108 -113 119 -113 11z"/>
<path d="M5280 90 c0 -39 9 -70 20 -70 11 0 20 23 20 50 0 71 59 66 62 -5 2
-54 2 -54 16 -6 19 70 62 76 62 9 0 -43 6 -50 23 -33 51 51 -9 116 -111 120
l-92 4 0 -69z"/>
<path d="M5559 129 c-36 -43 -1 -99 63 -99 40 0 48 10 48 60 0 70 -66 94 -111
39z"/>
<path d="M5740 90 c0 -76 33 -97 44 -27 9 64 56 71 56 9 0 -29 9 -52 20 -52
28 0 25 87 -4 116 -54 54 -116 29 -116 -46z"/>
</g>
</svg>
